%TF.GenerationSoftware,KiCad,Pcbnew,7.0.7*%
%TF.CreationDate,2023-10-29T00:46:50+02:00*%
%TF.ProjectId,DS1086_BRKO,44533130-3836-45f4-9252-4b4f2e6b6963,rev?*%
%TF.SameCoordinates,Original*%
%TF.FileFunction,Legend,Top*%
%TF.FilePolarity,Positive*%
%FSLAX46Y46*%
G04 Gerber Fmt 4.6, Leading zero omitted, Abs format (unit mm)*
G04 Created by KiCad (PCBNEW 7.0.7) date 2023-10-29 00:46:50*
%MOMM*%
%LPD*%
G01*
G04 APERTURE LIST*
%ADD10C,0.150000*%
%ADD11C,0.120000*%
G04 APERTURE END LIST*
D10*
X137795000Y-86995000D02*
X139065000Y-88265000D01*
X137795000Y-88265000D02*
X139065000Y-88265000D01*
X137795000Y-88265000D02*
X137795000Y-86995000D01*
X140312625Y-76079795D02*
X139931673Y-76079795D01*
X139931673Y-76079795D02*
X139893577Y-76460747D01*
X139893577Y-76460747D02*
X139931673Y-76422652D01*
X139931673Y-76422652D02*
X140007863Y-76384557D01*
X140007863Y-76384557D02*
X140198339Y-76384557D01*
X140198339Y-76384557D02*
X140274530Y-76422652D01*
X140274530Y-76422652D02*
X140312625Y-76460747D01*
X140312625Y-76460747D02*
X140350720Y-76536938D01*
X140350720Y-76536938D02*
X140350720Y-76727414D01*
X140350720Y-76727414D02*
X140312625Y-76803604D01*
X140312625Y-76803604D02*
X140274530Y-76841700D01*
X140274530Y-76841700D02*
X140198339Y-76879795D01*
X140198339Y-76879795D02*
X140007863Y-76879795D01*
X140007863Y-76879795D02*
X139931673Y-76841700D01*
X139931673Y-76841700D02*
X139893577Y-76803604D01*
X140579292Y-76079795D02*
X140845959Y-76879795D01*
X140845959Y-76879795D02*
X141112625Y-76079795D01*
X147253564Y-87636700D02*
X147367850Y-87674795D01*
X147367850Y-87674795D02*
X147558326Y-87674795D01*
X147558326Y-87674795D02*
X147634517Y-87636700D01*
X147634517Y-87636700D02*
X147672612Y-87598604D01*
X147672612Y-87598604D02*
X147710707Y-87522414D01*
X147710707Y-87522414D02*
X147710707Y-87446223D01*
X147710707Y-87446223D02*
X147672612Y-87370033D01*
X147672612Y-87370033D02*
X147634517Y-87331938D01*
X147634517Y-87331938D02*
X147558326Y-87293842D01*
X147558326Y-87293842D02*
X147405945Y-87255747D01*
X147405945Y-87255747D02*
X147329755Y-87217652D01*
X147329755Y-87217652D02*
X147291660Y-87179557D01*
X147291660Y-87179557D02*
X147253564Y-87103366D01*
X147253564Y-87103366D02*
X147253564Y-87027176D01*
X147253564Y-87027176D02*
X147291660Y-86950985D01*
X147291660Y-86950985D02*
X147329755Y-86912890D01*
X147329755Y-86912890D02*
X147405945Y-86874795D01*
X147405945Y-86874795D02*
X147596422Y-86874795D01*
X147596422Y-86874795D02*
X147710707Y-86912890D01*
X148510708Y-87598604D02*
X148472612Y-87636700D01*
X148472612Y-87636700D02*
X148358327Y-87674795D01*
X148358327Y-87674795D02*
X148282136Y-87674795D01*
X148282136Y-87674795D02*
X148167850Y-87636700D01*
X148167850Y-87636700D02*
X148091660Y-87560509D01*
X148091660Y-87560509D02*
X148053565Y-87484319D01*
X148053565Y-87484319D02*
X148015469Y-87331938D01*
X148015469Y-87331938D02*
X148015469Y-87217652D01*
X148015469Y-87217652D02*
X148053565Y-87065271D01*
X148053565Y-87065271D02*
X148091660Y-86989080D01*
X148091660Y-86989080D02*
X148167850Y-86912890D01*
X148167850Y-86912890D02*
X148282136Y-86874795D01*
X148282136Y-86874795D02*
X148358327Y-86874795D01*
X148358327Y-86874795D02*
X148472612Y-86912890D01*
X148472612Y-86912890D02*
X148510708Y-86950985D01*
X149234517Y-87674795D02*
X148853565Y-87674795D01*
X148853565Y-87674795D02*
X148853565Y-86874795D01*
X139093577Y-87636700D02*
X139207863Y-87674795D01*
X139207863Y-87674795D02*
X139398339Y-87674795D01*
X139398339Y-87674795D02*
X139474530Y-87636700D01*
X139474530Y-87636700D02*
X139512625Y-87598604D01*
X139512625Y-87598604D02*
X139550720Y-87522414D01*
X139550720Y-87522414D02*
X139550720Y-87446223D01*
X139550720Y-87446223D02*
X139512625Y-87370033D01*
X139512625Y-87370033D02*
X139474530Y-87331938D01*
X139474530Y-87331938D02*
X139398339Y-87293842D01*
X139398339Y-87293842D02*
X139245958Y-87255747D01*
X139245958Y-87255747D02*
X139169768Y-87217652D01*
X139169768Y-87217652D02*
X139131673Y-87179557D01*
X139131673Y-87179557D02*
X139093577Y-87103366D01*
X139093577Y-87103366D02*
X139093577Y-87027176D01*
X139093577Y-87027176D02*
X139131673Y-86950985D01*
X139131673Y-86950985D02*
X139169768Y-86912890D01*
X139169768Y-86912890D02*
X139245958Y-86874795D01*
X139245958Y-86874795D02*
X139436435Y-86874795D01*
X139436435Y-86874795D02*
X139550720Y-86912890D01*
X139893578Y-87674795D02*
X139893578Y-86874795D01*
X139893578Y-86874795D02*
X140084054Y-86874795D01*
X140084054Y-86874795D02*
X140198340Y-86912890D01*
X140198340Y-86912890D02*
X140274530Y-86989080D01*
X140274530Y-86989080D02*
X140312625Y-87065271D01*
X140312625Y-87065271D02*
X140350721Y-87217652D01*
X140350721Y-87217652D02*
X140350721Y-87331938D01*
X140350721Y-87331938D02*
X140312625Y-87484319D01*
X140312625Y-87484319D02*
X140274530Y-87560509D01*
X140274530Y-87560509D02*
X140198340Y-87636700D01*
X140198340Y-87636700D02*
X140084054Y-87674795D01*
X140084054Y-87674795D02*
X139893578Y-87674795D01*
X140655482Y-87446223D02*
X141036435Y-87446223D01*
X140579292Y-87674795D02*
X140845959Y-86874795D01*
X140845959Y-86874795D02*
X141112625Y-87674795D01*
X147710707Y-76117890D02*
X147634517Y-76079795D01*
X147634517Y-76079795D02*
X147520231Y-76079795D01*
X147520231Y-76079795D02*
X147405945Y-76117890D01*
X147405945Y-76117890D02*
X147329755Y-76194080D01*
X147329755Y-76194080D02*
X147291660Y-76270271D01*
X147291660Y-76270271D02*
X147253564Y-76422652D01*
X147253564Y-76422652D02*
X147253564Y-76536938D01*
X147253564Y-76536938D02*
X147291660Y-76689319D01*
X147291660Y-76689319D02*
X147329755Y-76765509D01*
X147329755Y-76765509D02*
X147405945Y-76841700D01*
X147405945Y-76841700D02*
X147520231Y-76879795D01*
X147520231Y-76879795D02*
X147596422Y-76879795D01*
X147596422Y-76879795D02*
X147710707Y-76841700D01*
X147710707Y-76841700D02*
X147748803Y-76803604D01*
X147748803Y-76803604D02*
X147748803Y-76536938D01*
X147748803Y-76536938D02*
X147596422Y-76536938D01*
X148091660Y-76879795D02*
X148091660Y-76079795D01*
X148091660Y-76079795D02*
X148548803Y-76879795D01*
X148548803Y-76879795D02*
X148548803Y-76079795D01*
X148929755Y-76879795D02*
X148929755Y-76079795D01*
X148929755Y-76079795D02*
X149120231Y-76079795D01*
X149120231Y-76079795D02*
X149234517Y-76117890D01*
X149234517Y-76117890D02*
X149310707Y-76194080D01*
X149310707Y-76194080D02*
X149348802Y-76270271D01*
X149348802Y-76270271D02*
X149386898Y-76422652D01*
X149386898Y-76422652D02*
X149386898Y-76536938D01*
X149386898Y-76536938D02*
X149348802Y-76689319D01*
X149348802Y-76689319D02*
X149310707Y-76765509D01*
X149310707Y-76765509D02*
X149234517Y-76841700D01*
X149234517Y-76841700D02*
X149120231Y-76879795D01*
X149120231Y-76879795D02*
X148929755Y-76879795D01*
X138535652Y-82605476D02*
X139202319Y-82605476D01*
X138154700Y-82843571D02*
X138868985Y-83081666D01*
X138868985Y-83081666D02*
X138868985Y-82462619D01*
X139202319Y-82081666D02*
X138202319Y-82081666D01*
X138821366Y-81986428D02*
X139202319Y-81700714D01*
X138535652Y-81700714D02*
X138916604Y-82081666D01*
X138202319Y-81367380D02*
X138202319Y-80700714D01*
X138202319Y-80700714D02*
X139202319Y-81129285D01*
D11*
%TO.C,J0*%
X146750000Y-85030000D02*
X146750000Y-86360000D01*
X145420000Y-85030000D02*
X146750000Y-85030000D01*
X144150000Y-85030000D02*
X141550000Y-85030000D01*
X144150000Y-85030000D02*
X144150000Y-87690000D01*
X141550000Y-85030000D02*
X141550000Y-87690000D01*
X144150000Y-87690000D02*
X141550000Y-87690000D01*
%TO.C,R1*%
X141275000Y-83185000D02*
X142225000Y-83185000D01*
X142225000Y-82265000D02*
X142225000Y-84105000D01*
X142225000Y-84105000D02*
X146065000Y-84105000D01*
X146065000Y-82265000D02*
X142225000Y-82265000D01*
X146065000Y-84105000D02*
X146065000Y-82265000D01*
X147015000Y-83185000D02*
X146065000Y-83185000D01*
%TO.C,J1*%
X141540000Y-78800000D02*
X141540000Y-77470000D01*
X142870000Y-78800000D02*
X141540000Y-78800000D01*
X144140000Y-78800000D02*
X146740000Y-78800000D01*
X144140000Y-78800000D02*
X144140000Y-76140000D01*
X146740000Y-78800000D02*
X146740000Y-76140000D01*
X144140000Y-76140000D02*
X146740000Y-76140000D01*
%TO.C,R0*%
X141275000Y-80645000D02*
X142225000Y-80645000D01*
X142225000Y-79725000D02*
X142225000Y-81565000D01*
X142225000Y-81565000D02*
X146065000Y-81565000D01*
X146065000Y-79725000D02*
X142225000Y-79725000D01*
X146065000Y-81565000D02*
X146065000Y-79725000D01*
X147015000Y-80645000D02*
X146065000Y-80645000D01*
%TD*%
M02*
